<svg version="1.1" xmlns="http://www.w3.org/2000/svg" xmlns:xlink="http://www.w3.org/1999/xlink" width="2000" height="2000"><defs/><g transform="scale(2,2)"><g id="background-e93117af"><rect fill="white" stroke="none" x="0" y="0" width="1000" height="1000" class="dcg-svg-background"/></g><g id="background-images-e93117af"/><g id="graphpaper-e93117af"><g id="grid-e93117af"><g><path fill="none" stroke="rgb(0,0,0)" class="dcg-svg-minor-gridline" paint-order="fill stroke markers" d=" M 10.5 0 L 10.5 1000" stroke-opacity="0.3" stroke-miterlimit="10" stroke-dasharray=""/><path fill="none" stroke="rgb(0,0,0)" class="dcg-svg-minor-gridline" paint-order="fill stroke markers" d=" M 42.5 0 L 42.5 1000" stroke-opacity="0.3" stroke-miterlimit="10" stroke-dasharray=""/><path fill="none" stroke="rgb(0,0,0)" class="dcg-svg-minor-gridline" paint-order="fill stroke markers" d=" M 73.5 0 L 73.5 1000" stroke-opacity="0.3" stroke-miterlimit="10" stroke-dasharray=""/><path fill="none" stroke="rgb(0,0,0)" class="dcg-svg-minor-gridline" paint-order="fill stroke markers" d=" M 105.5 0 L 105.5 1000" stroke-opacity="0.3" stroke-miterlimit="10" stroke-dasharray=""/><path fill="none" stroke="rgb(0,0,0)" class="dcg-svg-minor-gridline" paint-order="fill stroke markers" d=" M 137.5 0 L 137.5 1000" stroke-opacity="0.3" stroke-miterlimit="10" stroke-dasharray=""/><path fill="none" stroke="rgb(0,0,0)" class="dcg-svg-minor-gridline" paint-order="fill stroke markers" d=" M 168.5 0 L 168.5 1000" stroke-opacity="0.3" stroke-miterlimit="10" stroke-dasharray=""/><path fill="none" stroke="rgb(0,0,0)" class="dcg-svg-minor-gridline" paint-order="fill stroke markers" d=" M 200.5 0 L 200.5 1000" stroke-opacity="0.3" stroke-miterlimit="10" stroke-dasharray=""/><path fill="none" stroke="rgb(0,0,0)" class="dcg-svg-minor-gridline" paint-order="fill stroke markers" d=" M 232.5 0 L 232.5 1000" stroke-opacity="0.3" stroke-miterlimit="10" stroke-dasharray=""/><path fill="none" stroke="rgb(0,0,0)" class="dcg-svg-minor-gridline" paint-order="fill stroke markers" d=" M 263.5 0 L 263.5 1000" stroke-opacity="0.3" stroke-miterlimit="10" stroke-dasharray=""/><path fill="none" stroke="rgb(0,0,0)" class="dcg-svg-minor-gridline" paint-order="fill stroke markers" d=" M 295.5 0 L 295.5 1000" stroke-opacity="0.3" stroke-miterlimit="10" stroke-dasharray=""/><path fill="none" stroke="rgb(0,0,0)" class="dcg-svg-minor-gridline" paint-order="fill stroke markers" d=" M 326.5 0 L 326.5 1000" stroke-opacity="0.3" stroke-miterlimit="10" stroke-dasharray=""/><path fill="none" stroke="rgb(0,0,0)" class="dcg-svg-minor-gridline" paint-order="fill stroke markers" d=" M 358.5 0 L 358.5 1000" stroke-opacity="0.3" stroke-miterlimit="10" stroke-dasharray=""/><path fill="none" stroke="rgb(0,0,0)" class="dcg-svg-minor-gridline" paint-order="fill stroke markers" d=" M 390.5 0 L 390.5 1000" stroke-opacity="0.3" stroke-miterlimit="10" stroke-dasharray=""/><path fill="none" stroke="rgb(0,0,0)" class="dcg-svg-minor-gridline" paint-order="fill stroke markers" d=" M 421.5 0 L 421.5 1000" stroke-opacity="0.3" stroke-miterlimit="10" stroke-dasharray=""/><path fill="none" stroke="rgb(0,0,0)" class="dcg-svg-minor-gridline" paint-order="fill stroke markers" d=" M 453.5 0 L 453.5 1000" stroke-opacity="0.3" stroke-miterlimit="10" stroke-dasharray=""/><path fill="none" stroke="rgb(0,0,0)" class="dcg-svg-minor-gridline" paint-order="fill stroke markers" d=" M 485.5 0 L 485.5 1000" stroke-opacity="0.3" stroke-miterlimit="10" stroke-dasharray=""/><path fill="none" stroke="rgb(0,0,0)" class="dcg-svg-minor-gridline" paint-order="fill stroke markers" d=" M 516.5 0 L 516.5 1000" stroke-opacity="0.3" stroke-miterlimit="10" stroke-dasharray=""/><path fill="none" stroke="rgb(0,0,0)" class="dcg-svg-minor-gridline" paint-order="fill stroke markers" d=" M 548.5 0 L 548.5 1000" stroke-opacity="0.3" stroke-miterlimit="10" stroke-dasharray=""/><path fill="none" stroke="rgb(0,0,0)" class="dcg-svg-minor-gridline" paint-order="fill stroke markers" d=" M 580.5 0 L 580.5 1000" stroke-opacity="0.3" stroke-miterlimit="10" stroke-dasharray=""/><path fill="none" stroke="rgb(0,0,0)" class="dcg-svg-minor-gridline" paint-order="fill stroke markers" d=" M 611.5 0 L 611.5 1000" stroke-opacity="0.3" stroke-miterlimit="10" stroke-dasharray=""/><path fill="none" stroke="rgb(0,0,0)" class="dcg-svg-minor-gridline" paint-order="fill stroke markers" d=" M 643.5 0 L 643.5 1000" stroke-opacity="0.3" stroke-miterlimit="10" stroke-dasharray=""/><path fill="none" stroke="rgb(0,0,0)" class="dcg-svg-minor-gridline" paint-order="fill stroke markers" d=" M 675.5 0 L 675.5 1000" stroke-opacity="0.3" stroke-miterlimit="10" stroke-dasharray=""/><path fill="none" stroke="rgb(0,0,0)" class="dcg-svg-minor-gridline" paint-order="fill stroke markers" d=" M 738.5 0 L 738.5 1000" stroke-opacity="0.3" stroke-miterlimit="10" stroke-dasharray=""/><path fill="none" stroke="rgb(0,0,0)" class="dcg-svg-minor-gridline" paint-order="fill stroke markers" d=" M 769.5 0 L 769.5 1000" stroke-opacity="0.3" stroke-miterlimit="10" stroke-dasharray=""/><path fill="none" stroke="rgb(0,0,0)" class="dcg-svg-minor-gridline" paint-order="fill stroke markers" d=" M 801.5 0 L 801.5 1000" stroke-opacity="0.3" stroke-miterlimit="10" stroke-dasharray=""/><path fill="none" stroke="rgb(0,0,0)" class="dcg-svg-minor-gridline" paint-order="fill stroke markers" d=" M 833.5 0 L 833.5 1000" stroke-opacity="0.3" stroke-miterlimit="10" stroke-dasharray=""/><path fill="none" stroke="rgb(0,0,0)" class="dcg-svg-minor-gridline" paint-order="fill stroke markers" d=" M 864.5 0 L 864.5 1000" stroke-opacity="0.3" stroke-miterlimit="10" stroke-dasharray=""/><path fill="none" stroke="rgb(0,0,0)" class="dcg-svg-minor-gridline" paint-order="fill stroke markers" d=" M 896.5 0 L 896.5 1000" stroke-opacity="0.3" stroke-miterlimit="10" stroke-dasharray=""/><path fill="none" stroke="rgb(0,0,0)" class="dcg-svg-minor-gridline" paint-order="fill stroke markers" d=" M 928.5 0 L 928.5 1000" stroke-opacity="0.3" stroke-miterlimit="10" stroke-dasharray=""/><path fill="none" stroke="rgb(0,0,0)" class="dcg-svg-minor-gridline" paint-order="fill stroke markers" d=" M 959.5 0 L 959.5 1000" stroke-opacity="0.3" stroke-miterlimit="10" stroke-dasharray=""/><path fill="none" stroke="rgb(0,0,0)" class="dcg-svg-minor-gridline" paint-order="fill stroke markers" d=" M 991.5 0 L 991.5 1000" stroke-opacity="0.3" stroke-miterlimit="10" stroke-dasharray=""/><path fill="none" stroke="rgb(0,0,0)" class="dcg-svg-minor-gridline" paint-order="fill stroke markers" d=" M 0 972.5 L 1000 972.5" stroke-opacity="0.3" stroke-miterlimit="10" stroke-dasharray=""/><path fill="none" stroke="rgb(0,0,0)" class="dcg-svg-minor-gridline" paint-order="fill stroke markers" d=" M 0 940.5 L 1000 940.5" stroke-opacity="0.3" stroke-miterlimit="10" stroke-dasharray=""/><path fill="none" stroke="rgb(0,0,0)" class="dcg-svg-minor-gridline" paint-order="fill stroke markers" d=" M 0 908.5 L 1000 908.5" stroke-opacity="0.3" stroke-miterlimit="10" stroke-dasharray=""/><path fill="none" stroke="rgb(0,0,0)" class="dcg-svg-minor-gridline" paint-order="fill stroke markers" d=" M 0 877.5 L 1000 877.5" stroke-opacity="0.3" stroke-miterlimit="10" stroke-dasharray=""/><path fill="none" stroke="rgb(0,0,0)" class="dcg-svg-minor-gridline" paint-order="fill stroke markers" d=" M 0 845.5 L 1000 845.5" stroke-opacity="0.3" stroke-miterlimit="10" stroke-dasharray=""/><path fill="none" stroke="rgb(0,0,0)" class="dcg-svg-minor-gridline" paint-order="fill stroke markers" d=" M 0 813.5 L 1000 813.5" stroke-opacity="0.3" stroke-miterlimit="10" stroke-dasharray=""/><path fill="none" stroke="rgb(0,0,0)" class="dcg-svg-minor-gridline" paint-order="fill stroke markers" d=" M 0 782.5 L 1000 782.5" stroke-opacity="0.3" stroke-miterlimit="10" stroke-dasharray=""/><path fill="none" stroke="rgb(0,0,0)" class="dcg-svg-minor-gridline" paint-order="fill stroke markers" d=" M 0 750.5 L 1000 750.5" stroke-opacity="0.3" stroke-miterlimit="10" stroke-dasharray=""/><path fill="none" stroke="rgb(0,0,0)" class="dcg-svg-minor-gridline" paint-order="fill stroke markers" d=" M 0 719.5 L 1000 719.5" stroke-opacity="0.3" stroke-miterlimit="10" stroke-dasharray=""/><path fill="none" stroke="rgb(0,0,0)" class="dcg-svg-minor-gridline" paint-order="fill stroke markers" d=" M 0 687.5 L 1000 687.5" stroke-opacity="0.3" stroke-miterlimit="10" stroke-dasharray=""/><path fill="none" stroke="rgb(0,0,0)" class="dcg-svg-minor-gridline" paint-order="fill stroke markers" d=" M 0 655.5 L 1000 655.5" stroke-opacity="0.3" stroke-miterlimit="10" stroke-dasharray=""/><path fill="none" stroke="rgb(0,0,0)" class="dcg-svg-minor-gridline" paint-order="fill stroke markers" d=" M 0 624.5 L 1000 624.5" stroke-opacity="0.3" stroke-miterlimit="10" stroke-dasharray=""/><path fill="none" stroke="rgb(0,0,0)" class="dcg-svg-minor-gridline" paint-order="fill stroke markers" d=" M 0 592.5 L 1000 592.5" stroke-opacity="0.3" stroke-miterlimit="10" stroke-dasharray=""/><path fill="none" stroke="rgb(0,0,0)" class="dcg-svg-minor-gridline" paint-order="fill stroke markers" d=" M 0 560.5 L 1000 560.5" stroke-opacity="0.3" stroke-miterlimit="10" stroke-dasharray=""/><path fill="none" stroke="rgb(0,0,0)" class="dcg-svg-minor-gridline" paint-order="fill stroke markers" d=" M 0 529.5 L 1000 529.5" stroke-opacity="0.3" stroke-miterlimit="10" stroke-dasharray=""/><path fill="none" stroke="rgb(0,0,0)" class="dcg-svg-minor-gridline" paint-order="fill stroke markers" d=" M 0 465.5 L 1000 465.5" stroke-opacity="0.3" stroke-miterlimit="10" stroke-dasharray=""/><path fill="none" stroke="rgb(0,0,0)" class="dcg-svg-minor-gridline" paint-order="fill stroke markers" d=" M 0 434.5 L 1000 434.5" stroke-opacity="0.3" stroke-miterlimit="10" stroke-dasharray=""/><path fill="none" stroke="rgb(0,0,0)" class="dcg-svg-minor-gridline" paint-order="fill stroke markers" d=" M 0 402.5 L 1000 402.5" stroke-opacity="0.3" stroke-miterlimit="10" stroke-dasharray=""/><path fill="none" stroke="rgb(0,0,0)" class="dcg-svg-minor-gridline" paint-order="fill stroke markers" d=" M 0 370.5 L 1000 370.5" stroke-opacity="0.3" stroke-miterlimit="10" stroke-dasharray=""/><path fill="none" stroke="rgb(0,0,0)" class="dcg-svg-minor-gridline" paint-order="fill stroke markers" d=" M 0 339.5 L 1000 339.5" stroke-opacity="0.3" stroke-miterlimit="10" stroke-dasharray=""/><path fill="none" stroke="rgb(0,0,0)" class="dcg-svg-minor-gridline" paint-order="fill stroke markers" d=" M 0 307.5 L 1000 307.5" stroke-opacity="0.3" stroke-miterlimit="10" stroke-dasharray=""/><path fill="none" stroke="rgb(0,0,0)" class="dcg-svg-minor-gridline" paint-order="fill stroke markers" d=" M 0 276.5 L 1000 276.5" stroke-opacity="0.3" stroke-miterlimit="10" stroke-dasharray=""/><path fill="none" stroke="rgb(0,0,0)" class="dcg-svg-minor-gridline" paint-order="fill stroke markers" d=" M 0 244.5 L 1000 244.5" stroke-opacity="0.3" stroke-miterlimit="10" stroke-dasharray=""/><path fill="none" stroke="rgb(0,0,0)" class="dcg-svg-minor-gridline" paint-order="fill stroke markers" d=" M 0 212.5 L 1000 212.5" stroke-opacity="0.3" stroke-miterlimit="10" stroke-dasharray=""/><path fill="none" stroke="rgb(0,0,0)" class="dcg-svg-minor-gridline" paint-order="fill stroke markers" d=" M 0 181.5 L 1000 181.5" stroke-opacity="0.3" stroke-miterlimit="10" stroke-dasharray=""/><path fill="none" stroke="rgb(0,0,0)" class="dcg-svg-minor-gridline" paint-order="fill stroke markers" d=" M 0 149.5 L 1000 149.5" stroke-opacity="0.3" stroke-miterlimit="10" stroke-dasharray=""/><path fill="none" stroke="rgb(0,0,0)" class="dcg-svg-minor-gridline" paint-order="fill stroke markers" d=" M 0 117.5 L 1000 117.5" stroke-opacity="0.3" stroke-miterlimit="10" stroke-dasharray=""/><path fill="none" stroke="rgb(0,0,0)" class="dcg-svg-minor-gridline" paint-order="fill stroke markers" d=" M 0 86.5 L 1000 86.5" stroke-opacity="0.3" stroke-miterlimit="10" stroke-dasharray=""/><path fill="none" stroke="rgb(0,0,0)" class="dcg-svg-minor-gridline" paint-order="fill stroke markers" d=" M 0 54.5 L 1000 54.5" stroke-opacity="0.3" stroke-miterlimit="10" stroke-dasharray=""/><path fill="none" stroke="rgb(0,0,0)" class="dcg-svg-minor-gridline" paint-order="fill stroke markers" d=" M 0 22.5 L 1000 22.5" stroke-opacity="0.3" stroke-miterlimit="10" stroke-dasharray=""/><path fill="none" stroke="rgb(0,0,0)" class="dcg-svg-major-gridline" paint-order="fill stroke markers" d=" M 73.5 0 L 73.5 1000" stroke-opacity="0.4285714285714285" stroke-miterlimit="10" stroke-dasharray=""/><path fill="none" stroke="rgb(0,0,0)" class="dcg-svg-major-gridline" paint-order="fill stroke markers" d=" M 232.5 0 L 232.5 1000" stroke-opacity="0.4285714285714285" stroke-miterlimit="10" stroke-dasharray=""/><path fill="none" stroke="rgb(0,0,0)" class="dcg-svg-major-gridline" paint-order="fill stroke markers" d=" M 390.5 0 L 390.5 1000" stroke-opacity="0.4285714285714285" stroke-miterlimit="10" stroke-dasharray=""/><path fill="none" stroke="rgb(0,0,0)" class="dcg-svg-major-gridline" paint-order="fill stroke markers" d=" M 548.5 0 L 548.5 1000" stroke-opacity="0.4285714285714285" stroke-miterlimit="10" stroke-dasharray=""/><path fill="none" stroke="rgb(0,0,0)" class="dcg-svg-major-gridline" paint-order="fill stroke markers" d=" M 864.5 0 L 864.5 1000" stroke-opacity="0.4285714285714285" stroke-miterlimit="10" stroke-dasharray=""/><path fill="none" stroke="rgb(0,0,0)" class="dcg-svg-major-gridline" paint-order="fill stroke markers" d=" M 0 972.5 L 1000 972.5" stroke-opacity="0.4285714285714285" stroke-miterlimit="10" stroke-dasharray=""/><path fill="none" stroke="rgb(0,0,0)" class="dcg-svg-major-gridline" paint-order="fill stroke markers" d=" M 0 813.5 L 1000 813.5" stroke-opacity="0.4285714285714285" stroke-miterlimit="10" stroke-dasharray=""/><path fill="none" stroke="rgb(0,0,0)" class="dcg-svg-major-gridline" paint-order="fill stroke markers" d=" M 0 655.5 L 1000 655.5" stroke-opacity="0.4285714285714285" stroke-miterlimit="10" stroke-dasharray=""/><path fill="none" stroke="rgb(0,0,0)" class="dcg-svg-major-gridline" paint-order="fill stroke markers" d=" M 0 339.5 L 1000 339.5" stroke-opacity="0.4285714285714285" stroke-miterlimit="10" stroke-dasharray=""/><path fill="none" stroke="rgb(0,0,0)" class="dcg-svg-major-gridline" paint-order="fill stroke markers" d=" M 0 181.5 L 1000 181.5" stroke-opacity="0.4285714285714285" stroke-miterlimit="10" stroke-dasharray=""/><path fill="none" stroke="rgb(0,0,0)" class="dcg-svg-major-gridline" paint-order="fill stroke markers" d=" M 0 22.5 L 1000 22.5" stroke-opacity="0.4285714285714285" stroke-miterlimit="10" stroke-dasharray=""/></g></g><g id="axis-e93117af"><g id="yaxis-e93117af"><title>Y axis</title><g><path fill="none" stroke="rgb(0,0,0)" class="dcg-svg-axis-line" paint-order="fill stroke markers" d=" M 707 0 L 707 1000" stroke-opacity="0.9" stroke-miterlimit="10" stroke-width="2" stroke-dasharray=""/></g></g><g id="xaxis-e93117af"><title>X axis</title><g><path fill="none" stroke="rgb(0,0,0)" class="dcg-svg-axis-line" paint-order="fill stroke markers" d=" M 0 498 L 1000 498" stroke-opacity="0.9" stroke-miterlimit="10" stroke-width="2" stroke-dasharray=""/></g></g><g><g class="dcg-svg-axis-value"><text fill="none" stroke="#ffffff" font-family="Arial" font-size="17px" font-style="normal" font-weight="normal" text-decoration="normal" x="696.9622927244087" y="515.6374539024772" text-anchor="middle" stroke-miterlimit="2" stroke-width="3" stroke-dasharray="">0</text><text fill="#000000" stroke="none" font-family="Arial" font-size="17px" font-style="normal" font-weight="normal" text-decoration="normal" x="696.9622927244087" y="515.6374539024772" text-anchor="middle">0</text></g><g class="dcg-svg-axis-value"><text fill="none" stroke="#ffffff" font-family="Arial" font-size="17px" font-style="normal" font-weight="normal" text-decoration="normal" x="71.03449099408192" y="515.6374539024772" text-anchor="middle" stroke-miterlimit="2" stroke-width="3" stroke-dasharray="">-4</text><text fill="#000000" stroke="none" font-family="Arial" font-size="17px" font-style="normal" font-weight="normal" text-decoration="normal" x="71.03449099408192" y="515.6374539024772" text-anchor="middle">-4</text></g><g class="dcg-svg-axis-value"><text fill="none" stroke="#ffffff" font-family="Arial" font-size="17px" font-style="normal" font-weight="normal" text-decoration="normal" x="229.239358029752" y="515.6374539024772" text-anchor="middle" stroke-miterlimit="2" stroke-width="3" stroke-dasharray="">-3</text><text fill="#000000" stroke="none" font-family="Arial" font-size="17px" font-style="normal" font-weight="normal" text-decoration="normal" x="229.239358029752" y="515.6374539024772" text-anchor="middle">-3</text></g><g class="dcg-svg-axis-value"><text fill="none" stroke="#ffffff" font-family="Arial" font-size="17px" font-style="normal" font-weight="normal" text-decoration="normal" x="387.4442250654221" y="515.6374539024772" text-anchor="middle" stroke-miterlimit="2" stroke-width="3" stroke-dasharray="">-2</text><text fill="#000000" stroke="none" font-family="Arial" font-size="17px" font-style="normal" font-weight="normal" text-decoration="normal" x="387.4442250654221" y="515.6374539024772" text-anchor="middle">-2</text></g><g class="dcg-svg-axis-value"><text fill="none" stroke="#ffffff" font-family="Arial" font-size="17px" font-style="normal" font-weight="normal" text-decoration="normal" x="545.6490921010922" y="515.6374539024772" text-anchor="middle" stroke-miterlimit="2" stroke-width="3" stroke-dasharray="">-1</text><text fill="#000000" stroke="none" font-family="Arial" font-size="17px" font-style="normal" font-weight="normal" text-decoration="normal" x="545.6490921010922" y="515.6374539024772" text-anchor="middle">-1</text></g><g class="dcg-svg-axis-value"><text fill="none" stroke="#ffffff" font-family="Arial" font-size="17px" font-style="normal" font-weight="normal" text-decoration="normal" x="864.8921596647114" y="515.6374539024772" text-anchor="middle" stroke-miterlimit="2" stroke-width="3" stroke-dasharray="">1</text><text fill="#000000" stroke="none" font-family="Arial" font-size="17px" font-style="normal" font-weight="normal" text-decoration="normal" x="864.8921596647114" y="515.6374539024772" text-anchor="middle">1</text></g><g class="dcg-svg-axis-value"><text fill="none" stroke="#ffffff" font-family="Arial" font-size="17px" font-style="normal" font-weight="normal" text-decoration="normal" x="694.1289592321297" y="976.7520550094874" text-anchor="middle" stroke-miterlimit="2" stroke-width="3" stroke-dasharray="">-3</text><text fill="#000000" stroke="none" font-family="Arial" font-size="17px" font-style="normal" font-weight="normal" text-decoration="normal" x="694.1289592321297" y="976.7520550094874" text-anchor="middle">-3</text></g><g class="dcg-svg-axis-value"><text fill="none" stroke="#ffffff" font-family="Arial" font-size="17px" font-style="normal" font-weight="normal" text-decoration="normal" x="694.1289592321297" y="818.5471879738174" text-anchor="middle" stroke-miterlimit="2" stroke-width="3" stroke-dasharray="">-2</text><text fill="#000000" stroke="none" font-family="Arial" font-size="17px" font-style="normal" font-weight="normal" text-decoration="normal" x="694.1289592321297" y="818.5471879738174" text-anchor="middle">-2</text></g><g class="dcg-svg-axis-value"><text fill="none" stroke="#ffffff" font-family="Arial" font-size="17px" font-style="normal" font-weight="normal" text-decoration="normal" x="694.1289592321297" y="660.3423209381473" text-anchor="middle" stroke-miterlimit="2" stroke-width="3" stroke-dasharray="">-1</text><text fill="#000000" stroke="none" font-family="Arial" font-size="17px" font-style="normal" font-weight="normal" text-decoration="normal" x="694.1289592321297" y="660.3423209381473" text-anchor="middle">-1</text></g><g class="dcg-svg-axis-value"><text fill="none" stroke="#ffffff" font-family="Arial" font-size="17px" font-style="normal" font-weight="normal" text-decoration="normal" x="696.9622927244087" y="343.9325868668071" text-anchor="middle" stroke-miterlimit="2" stroke-width="3" stroke-dasharray="">1</text><text fill="#000000" stroke="none" font-family="Arial" font-size="17px" font-style="normal" font-weight="normal" text-decoration="normal" x="696.9622927244087" y="343.9325868668071" text-anchor="middle">1</text></g><g class="dcg-svg-axis-value"><text fill="none" stroke="#ffffff" font-family="Arial" font-size="17px" font-style="normal" font-weight="normal" text-decoration="normal" x="696.9622927244087" y="185.72771983113702" text-anchor="middle" stroke-miterlimit="2" stroke-width="3" stroke-dasharray="">2</text><text fill="#000000" stroke="none" font-family="Arial" font-size="17px" font-style="normal" font-weight="normal" text-decoration="normal" x="696.9622927244087" y="185.72771983113702" text-anchor="middle">2</text></g><g class="dcg-svg-axis-value"><text fill="none" stroke="#ffffff" font-family="Arial" font-size="17px" font-style="normal" font-weight="normal" text-decoration="normal" x="696.9622927244087" y="27.522852795466953" text-anchor="middle" stroke-miterlimit="2" stroke-width="3" stroke-dasharray="">3</text><text fill="#000000" stroke="none" font-family="Arial" font-size="17px" font-style="normal" font-weight="normal" text-decoration="normal" x="696.9622927244087" y="27.522852795466953" text-anchor="middle">3</text></g></g></g></g><g id="expressions-e93117af"><g id="sketch-e93117af"><title>Expression 1</title><path fill="#c74440" stroke="none" paint-order="stroke fill markers" d="" fill-opacity="0.4"/><path fill="#c74440" stroke="none" paint-order="stroke fill markers" d="" fill-opacity="0.4"/><path fill="#c74440" stroke="none" paint-order="stroke fill markers" d="" fill-opacity="0.4"/><path fill="#c74440" stroke="none" class="dcg-svg-region" paint-order="stroke fill markers" d=" M 548.4824255933712 1000 L 548.4824255933712 0 L 1000 0 L 1000 1000 L 548.4824255933712 1000" fill-opacity="0.4"/><g><path fill="none" stroke="#c74440" class="dcg-svg-curve" paint-order="fill stroke markers" d=" M 548.4824255933712 1000 L 548.4824255933712 984.6 M 548.4824255933712 974.8000000000001 L 548.4824255933712 959.4000000000001 M 548.4824255933712 949.6000000000001 L 548.4824255933712 934.2000000000002 M 548.4824255933712 924.4000000000002 L 548.4824255933712 909.0000000000002 M 548.4824255933712 899.2000000000003 L 548.4824255933712 883.8000000000003 M 548.4824255933712 874.0000000000003 L 548.4824255933712 858.6000000000004 M 548.4824255933712 848.8000000000004 L 548.4824255933712 833.4000000000004 M 548.4824255933712 823.6000000000005 L 548.4824255933712 808.2000000000005 M 548.4824255933712 798.4000000000005 L 548.4824255933712 783.0000000000006 M 548.4824255933712 773.2000000000006 L 548.4824255933712 757.8000000000006 M 548.4824255933712 748.0000000000007 L 548.4824255933712 732.6000000000007 M 548.4824255933712 722.8000000000008 L 548.4824255933712 707.4000000000008 M 548.4824255933712 697.6000000000008 L 548.4824255933712 682.2000000000008 M 548.4824255933712 672.4000000000009 L 548.4824255933712 657.0000000000009 M 548.4824255933712 647.200000000001 L 548.4824255933712 631.800000000001 M 548.4824255933712 622.000000000001 L 548.4824255933712 606.600000000001 M 548.4824255933712 596.8000000000011 L 548.4824255933712 581.4000000000011 M 548.4824255933712 571.6000000000012 L 548.4824255933712 556.2000000000012 M 548.4824255933712 546.4000000000012 L 548.4824255933712 531.0000000000013 M 548.4824255933712 521.2000000000013 L 548.4824255933712 505.8000000000013 M 548.4824255933712 496.0000000000013 L 548.4824255933712 480.60000000000133 M 548.4824255933712 470.8000000000013 L 548.4824255933712 455.40000000000134 M 548.4824255933712 445.60000000000133 L 548.4824255933712 430.20000000000135 M 548.4824255933712 420.40000000000134 L 548.4824255933712 405.00000000000136 M 548.4824255933712 395.20000000000135 L 548.4824255933712 379.8000000000014 M 548.4824255933712 370.00000000000136 L 548.4824255933712 354.6000000000014 M 548.4824255933712 344.8000000000014 L 548.4824255933712 329.4000000000014 M 548.4824255933712 319.6000000000014 L 548.4824255933712 304.2000000000014 M 548.4824255933712 294.4000000000014 L 548.4824255933712 279.0000000000014 M 548.4824255933712 269.2000000000014 L 548.4824255933712 253.8000000000014 M 548.4824255933712 244.0000000000014 L 548.4824255933712 228.6000000000014 M 548.4824255933712 218.80000000000138 L 548.4824255933712 203.40000000000137 M 548.4824255933712 193.60000000000136 L 548.4824255933712 178.20000000000135 M 548.4824255933712 168.40000000000134 L 548.4824255933712 153.00000000000134 M 548.4824255933712 143.20000000000132 L 548.4824255933712 127.80000000000132 M 548.4824255933712 118.00000000000132 L 548.4824255933712 102.60000000000132 M 548.4824255933712 92.80000000000132 L 548.4824255933712 77.40000000000131 M 548.4824255933712 67.60000000000132 L 548.4824255933712 52.20000000000132 M 548.4824255933712 42.40000000000132 L 548.4824255933712 27.00000000000132 M 548.4824255933712 17.200000000001324 L 548.4824255933712 1.800000000001324" stroke-linecap="round" stroke-linejoin="round" stroke-miterlimit="10" stroke-width="3.5" stroke-dasharray=""/></g><path fill="#c74440" stroke="none" paint-order="stroke fill markers" d="" fill-opacity="0.4"/></g><g id="sketch-e93117af"><title>Expression 2</title><path fill="#2d70b3" stroke="none" paint-order="stroke fill markers" d="" fill-opacity="0.4"/><path fill="#2d70b3" stroke="none" paint-order="stroke fill markers" d="" fill-opacity="0.4"/><path fill="#2d70b3" stroke="none" paint-order="stroke fill markers" d="" fill-opacity="0.4"/><path fill="#2d70b3" stroke="none" class="dcg-svg-region" paint-order="stroke fill markers" d=" M 548.4824255933712 1000 L 548.4824255933712 0 L 1000 0 L 1000 1000 L 548.4824255933712 1000" fill-opacity="0.4"/><g><path fill="none" stroke="#2d70b3" class="dcg-svg-curve" paint-order="fill stroke markers" d=" M 548.4824255933712 1000 L 548.4824255933712 984.6 M 548.4824255933712 974.8000000000001 L 548.4824255933712 959.4000000000001 M 548.4824255933712 949.6000000000001 L 548.4824255933712 934.2000000000002 M 548.4824255933712 924.4000000000002 L 548.4824255933712 909.0000000000002 M 548.4824255933712 899.2000000000003 L 548.4824255933712 883.8000000000003 M 548.4824255933712 874.0000000000003 L 548.4824255933712 858.6000000000004 M 548.4824255933712 848.8000000000004 L 548.4824255933712 833.4000000000004 M 548.4824255933712 823.6000000000005 L 548.4824255933712 808.2000000000005 M 548.4824255933712 798.4000000000005 L 548.4824255933712 783.0000000000006 M 548.4824255933712 773.2000000000006 L 548.4824255933712 757.8000000000006 M 548.4824255933712 748.0000000000007 L 548.4824255933712 732.6000000000007 M 548.4824255933712 722.8000000000008 L 548.4824255933712 707.4000000000008 M 548.4824255933712 697.6000000000008 L 548.4824255933712 682.2000000000008 M 548.4824255933712 672.4000000000009 L 548.4824255933712 657.0000000000009 M 548.4824255933712 647.200000000001 L 548.4824255933712 631.800000000001 M 548.4824255933712 622.000000000001 L 548.4824255933712 606.600000000001 M 548.4824255933712 596.8000000000011 L 548.4824255933712 581.4000000000011 M 548.4824255933712 571.6000000000012 L 548.4824255933712 556.2000000000012 M 548.4824255933712 546.4000000000012 L 548.4824255933712 531.0000000000013 M 548.4824255933712 521.2000000000013 L 548.4824255933712 505.8000000000013 M 548.4824255933712 496.0000000000013 L 548.4824255933712 480.60000000000133 M 548.4824255933712 470.8000000000013 L 548.4824255933712 455.40000000000134 M 548.4824255933712 445.60000000000133 L 548.4824255933712 430.20000000000135 M 548.4824255933712 420.40000000000134 L 548.4824255933712 405.00000000000136 M 548.4824255933712 395.20000000000135 L 548.4824255933712 379.8000000000014 M 548.4824255933712 370.00000000000136 L 548.4824255933712 354.6000000000014 M 548.4824255933712 344.8000000000014 L 548.4824255933712 329.4000000000014 M 548.4824255933712 319.6000000000014 L 548.4824255933712 304.2000000000014 M 548.4824255933712 294.4000000000014 L 548.4824255933712 279.0000000000014 M 548.4824255933712 269.2000000000014 L 548.4824255933712 253.8000000000014 M 548.4824255933712 244.0000000000014 L 548.4824255933712 228.6000000000014 M 548.4824255933712 218.80000000000138 L 548.4824255933712 203.40000000000137 M 548.4824255933712 193.60000000000136 L 548.4824255933712 178.20000000000135 M 548.4824255933712 168.40000000000134 L 548.4824255933712 153.00000000000134 M 548.4824255933712 143.20000000000132 L 548.4824255933712 127.80000000000132 M 548.4824255933712 118.00000000000132 L 548.4824255933712 102.60000000000132 M 548.4824255933712 92.80000000000132 L 548.4824255933712 77.40000000000131 M 548.4824255933712 67.60000000000132 L 548.4824255933712 52.20000000000132 M 548.4824255933712 42.40000000000132 L 548.4824255933712 27.00000000000132 M 548.4824255933712 17.200000000001324 L 548.4824255933712 1.800000000001324" stroke-linecap="round" stroke-linejoin="round" stroke-miterlimit="10" stroke-width="3.5" stroke-dasharray=""/></g><path fill="#2d70b3" stroke="none" paint-order="stroke fill markers" d="" fill-opacity="0.4"/></g><g id="sketch-e93117af"><title>Expression 3</title><path fill="#388c46" stroke="none" paint-order="stroke fill markers" d="" fill-opacity="0.4"/><path fill="#388c46" stroke="none" paint-order="stroke fill markers" d="" fill-opacity="0.4"/><g><path fill="none" stroke="#388c46" class="dcg-svg-curve" paint-order="fill stroke markers" d=" M 37.94262595148953 1006.5 L 40.283203125 1001.5110957143536 M 40.283203125 1001.5110957143536 L 44.52971119094136 992.5799117796023 M 48.73786005390205 983.7294042717153 L 55.350665409983115 969.8214639021787 M 59.5588142729438 960.9709563942918 L 66.17161962902487 947.0630160247551 M 70.37976849198556 938.2125085168683 L 76.99257384806663 924.3045681473317 M 81.20072271102731 915.4540606394448 L 87.81352806710838 901.5461202699082 M 92.02167693006906 892.6956127620214 L 98.63448228615013 878.7876723924848 M 102.82151050844553 869.9271628135438 L 109.39111895117544 855.998765744634 M 113.5717788692763 847.1352403371461 L 120.14138731200622 833.2068432682364 M 124.32204723010707 824.3433178607485 L 130.89165567283698 810.4149207918388 M 135.07231559093785 801.5513953843508 L 138.427734375 794.4374850859958 M 138.427734375 794.4374850859958 L 141.56197557965461 787.585859207491 M 145.63864745327106 778.6740273848596 L 152.0448461118112 764.6697202350103 M 156.12151798542766 755.7578884123791 L 159.66796875 748.0051494721529 M 159.66796875 748.0051494721529 L 162.43227088383819 741.7107951121346 M 166.3728814470863 732.7379701172505 L 172.56526947504767 718.6378165538612 M 176.44444426342264 709.6386838260257 L 182.37573373110513 695.4267238890375 M 186.1501906650849 686.3827493836814 L 187.01171875 684.3184423398054 M 187.01171875 684.3184423398054 L 191.81708514807357 672.0637940351821 M 195.39469899458987 662.9401610326324 L 196.77734375000006 659.414139538293 M 196.77734375000006 659.414139538293 L 200.74962264000536 648.5020790445571 M 204.10187734750548 639.2932578183609 L 204.5898437500001 637.952788266656 M 204.5898437500001 637.952788266656 L 209.01519902163955 624.6985711643433 M 212.01374379184978 615.3696404380655 L 216.30859375000006 601.1171669385459 M 216.30859375000006 601.1171669385459 L 216.441013631078 600.6200215251478 M 218.963400294285 591.1501975816271 L 220.70312500000006 584.6187300181379 M 220.70312500000006 584.6187300181379 L 222.64330889435962 576.1985634065554 M 224.73486745109662 566.6256831747972 L 226.80664062500006 555.96099396829 M 226.80664062500006 555.96099396829 L 227.50704833407684 551.479458080848 M 229.01635007256664 541.7964544236817 L 230.4687500000001 529.493703233398 M 230.4687500000001 529.493703233398 L 230.71253345852043 526.491771657065 M 231.47977999895127 516.7222725480608 L 231.9335937500001 506.89864602585766 M 231.9335937500001 506.89864602585766 L 232.01607675324354 501.33336039223377" stroke-linecap="round" stroke-linejoin="round" stroke-miterlimit="10" stroke-width="3.5" stroke-dasharray=""/></g><g><path fill="none" stroke="#388c46" class="dcg-svg-curve" paint-order="fill stroke markers" d=" M 548.4824255933712 497.5134539024772 L 548.828125 507.972064075404 M 548.828125 507.972064075404 L 549.3080583064346 512.8843528885577 M 550.5393667270124 522.6022823370304 L 551.26953125 527.2085534195189 M 551.26953125 527.2085534195189 L 553.22265625 536.2370706599356 M 553.22265625 536.2370706599356 L 553.6212275836857 537.6819625238256 M 556.291224822808 547.109527809948 L 559.08203125 555.3931106904779 M 559.08203125 555.3931106904779 L 561.5482349722344 561.5785093542288 M 565.4737681386142 570.5541360937416 L 567.626953125 575.200897023892 M 567.626953125 575.200897023892 L 572.4450456585477 584.2803184690532 M 577.4453004732437 592.706918812592 L 579.345703125 595.8624675029192 M 579.345703125 595.8624675029192 L 585.9344472567402 605.5507146930796 M 591.8307847667785 613.3762135802987 L 594.970703125 617.4793516676892 M 594.970703125 617.4793516676892 L 601.6372081830824 625.2432462345699 M 608.2739144498735 632.4491902746696 L 613.28125 637.6671969084952 M 613.28125 637.6671969084952 L 619.2508550404795 643.2422276207276 M 626.5802349397791 649.7421064010198 L 632.8125 654.9538256348698 M 632.8125 654.9538256348698 L 638.6426772695559 659.3065068070078 M 646.6445479214163 664.9575041827575 L 652.83203125 669.0540364991871 M 652.83203125 669.0540364991871 L 659.7293709961468 673.0660452395373 M 668.378267704385 677.6655867725067 L 672.8515625 679.9191097323832 M 672.8515625 679.9191097323832 L 682.4044076188723 684.0079762651067 M 691.6362784898762 687.2948472675425 L 692.138671875 687.4728637225434 M 692.138671875 687.4728637225434 L 701.6601562500001 690.1478344886013 M 701.6601562500001 690.1478344886013 L 706.5336097480654 691.157268514372 M 716.1936763806423 692.7698179531687 L 719.970703125 693.2730996684905 M 719.970703125 693.2730996684905 L 728.759765625 693.789736015376 M 728.759765625 693.789736015376 L 731.5447315507855 693.7431034318741 M 741.3262759403943 693.2694840516493 L 745.60546875 692.8681517588219 M 745.60546875 692.8681517588219 L 753.662109375 691.4759269842609 M 753.662109375 691.4759269842609 L 756.4969622596353 690.7513748208013 M 765.8906339211629 687.9861557978679 L 769.53125 686.7377380852936 M 769.53125 686.7377380852936 L 777.099609375 683.4510988043653 M 777.099609375 683.4510988043653 L 780.0149839063697 681.9047395760656 M 788.485334360505 676.9905609003283 L 791.748046875 674.9214666842398 M 791.748046875 674.9214666842398 L 798.828125 669.6311573329846 M 798.828125 669.6311573329846 L 800.8618236836086 667.8578304288562 M 808.0908077054029 661.2496620023048 L 812.744140625 656.5424622582909 M 812.744140625 656.5424622582909 L 818.456188436635 649.8732516315547 M 824.367208465763 642.0602184646099 L 825.927734375 639.955478184432 M 825.927734375 639.955478184432 L 832.03125 630.4331760926256 M 832.03125 630.4331760926256 L 832.7456794255436 629.1491891185689 M 837.4993488486406 620.579725394548 L 842.28515625 610.6922404651674 M 842.28515625 610.6922404651674 L 843.9939907674589 606.6211616358244 M 847.6532504654587 597.5327156919938 L 850.5859375 589.429207878642 M 850.5859375 589.429207878642 L 852.5895250832463 582.9497731335993 M 855.268608395692 573.525638548976 L 856.93359375 567.1404047013312 M 856.93359375 567.1404047013312 L 858.7902959425793 558.5372186264559 M 860.5798222085781 548.9036319884344 L 861.328125 544.6030129437298 M 861.328125 544.6030129437298 L 862.7687968205578 533.6626979753953 M 863.7487715465105 523.9130543541772 L 864.013671875 521.0423955732176 M 864.013671875 521.0423955732176 L 864.6714627979001 508.5425465578024 M 864.8734354509137 498.7454764967423 L 864.8921596647114 497.5134539024772" stroke-linecap="round" stroke-linejoin="round" stroke-miterlimit="10" stroke-width="3.5" stroke-dasharray=""/></g><path fill="#388c46" stroke="none" paint-order="stroke fill markers" d="" fill-opacity="0.4"/><g><path fill="none" stroke="#388c46" class="dcg-svg-curve" paint-order="fill stroke markers" d=" M 40.27578477896515 -6.5 L 40.283203125 -6.484187909399225 M 40.283203125 -6.484187909399225 L 46.888508616381785 7.407978871561763 M 51.09665747934247 16.25848637944868 L 57.70946283542354 30.166426748985266 M 61.91761169838422 39.01693425687218 L 68.53041705446529 52.924874626408766 M 72.73856591742597 61.77538213429568 L 79.35137127350704 75.68332250383227 M 83.55952013646773 84.53383001171919 L 90.1723254925488 98.44177038125578 M 94.38047435550948 107.2922778891427 L 99.609375 118.28961327796219 M 99.609375 118.28961327796219 L 100.98423961307051 121.20449936497556 M 105.16489953117137 130.06802477246353 L 111.73450797390129 143.9964218413732 M 115.91516789200213 152.85994724886118 L 122.48477633473205 166.78834431777088 M 126.6654362528329 175.65186972525885 L 133.2350446955628 189.58026679416855 M 137.41570461366365 198.44379220165652 L 138.427734375 200.5894227189586 M 138.427734375 200.5894227189586 L 143.84707609130484 212.43640561636676 M 147.9237479649213 221.3482374389981 L 154.32994662346144 235.35254458884734 M 158.4066184970779 244.26437641147868 L 159.66796875 247.0217583328015 M 159.66796875 247.0217583328015 L 164.6411048281567 258.34565826882135 M 168.58171539140483 267.3184832637055 L 174.77410341936616 281.4186368270948 M 178.5601439661283 290.457651053325 L 184.4914334338108 304.66961099031323 M 188.20048360391087 313.740054317024 L 193.82244821986507 328.07719189245927 M 197.36083612706824 337.21565272983986 L 202.62866495313983 351.6866575138626 M 205.87774799679093 360.9314736818974 L 210.7548787590828 375.5387867656752 M 213.59867194969578 384.916856593161 L 216.30859375000006 393.90974086640847 M 216.30859375000006 393.90974086640847 L 217.85488927115028 399.7150151185842 M 220.3772759343573 409.18483906210474 L 220.70312500000006 410.4081777868165 M 220.70312500000006 410.4081777868165 L 223.87673828560932 424.1812807917678 M 225.78241947926838 433.79361842539544 L 226.80664062500006 439.06591383666427 M 226.80664062500006 439.06591383666427 L 228.35527011455332 448.9747691274377 M 229.66037715025269 458.68577236533395 L 230.4687500000001 465.5332045715563 M 230.4687500000001 465.5332045715563 L 231.1571664794571 474.0103144620034 M 231.73327448541494 483.7919858598699 L 231.9335937500001 488.1282617790967 M 231.9335937500001 488.1282617790967 L 232.07269152203105 497.5134539024772" stroke-linecap="round" stroke-linejoin="round" stroke-miterlimit="10" stroke-width="3.5" stroke-dasharray=""/></g><g><path fill="none" stroke="#388c46" class="dcg-svg-curve" paint-order="fill stroke markers" d=" M 548.4824255933712 497.5134539024772 L 548.828125 487.0548437295504 M 548.828125 487.0548437295504 L 549.3080583064346 482.14255491639665 M 550.5393667270124 472.42462546792393 L 551.26953125 467.81835438543544 M 551.26953125 467.81835438543544 L 553.22265625 458.78983714501874 M 553.22265625 458.78983714501874 L 553.6212275836857 457.3449452811287 M 556.291224822808 447.91737999500646 L 559.08203125 439.63379711447647 M 559.08203125 439.63379711447647 L 561.5482349722344 433.4483984507255 M 565.4737681386142 424.4727717112127 L 567.626953125 419.82601078106234 M 567.626953125 419.82601078106234 L 572.4450456585477 410.7465893359011 M 577.4453004732437 402.3199889923623 L 579.345703125 399.16444030203513 M 579.345703125 399.16444030203513 L 585.9344472567402 389.47619311187475 M 591.8307847667785 381.6506942246557 L 594.970703125 377.5475561372651 M 594.970703125 377.5475561372651 L 601.6372081830823 369.7836615703844 M 608.2739144498735 362.57771753028476 L 613.28125 357.3597108964592 M 613.28125 357.3597108964592 L 619.2508550404795 351.7846801842268 M 626.5802349397791 345.2848014039345 L 632.8125 340.0730821700846 M 632.8125 340.0730821700846 L 638.6426772695557 335.7204009979465 M 646.6445479214163 330.0694036221969 L 652.83203125 325.9728713057673 M 652.83203125 325.9728713057673 L 659.7293709961468 321.9608625654171 M 668.378267704385 317.36132103244773 L 672.8515625 315.10779807257126 M 672.8515625 315.10779807257126 L 682.4044076188723 311.01893153984776 M 691.6362784898762 307.7320605374118 L 692.138671875 307.554044082411 M 692.138671875 307.554044082411 L 701.6601562500001 304.8790733163529 M 701.6601562500001 304.8790733163529 L 706.5336097480654 303.8696392905823 M 716.1936763806423 302.2570898517856 L 719.970703125 301.7538081364638 M 719.970703125 301.7538081364638 L 728.759765625 301.2371717895784 M 728.759765625 301.2371717895784 L 731.5447315507855 301.28380437308016 M 741.3262759403943 301.75742375330503 L 745.60546875 302.15875604613245 M 745.60546875 302.15875604613245 L 753.662109375 303.5509808206934 M 753.662109375 303.5509808206934 L 756.4969622596353 304.275532984153 M 765.8906339211629 307.0407520070865 L 769.53125 308.2891697196608 M 769.53125 308.2891697196608 L 777.099609375 311.57580900058906 M 777.099609375 311.57580900058906 L 780.0149839063697 313.12216822888877 M 788.485334360505 318.036346904626 L 791.748046875 320.10544112071454 M 791.748046875 320.10544112071454 L 798.828125 325.3957504719698 M 798.828125 325.3957504719698 L 800.8618236836086 327.1690773760981 M 808.090807705403 333.7772458026495 L 812.744140625 338.4844455466633 M 812.744140625 338.4844455466633 L 818.456188436635 345.15365617339967 M 824.367208465763 352.9666893403445 L 825.927734375 355.0714296205224 M 825.927734375 355.0714296205224 L 832.03125 364.5937317123288 M 832.03125 364.5937317123288 L 832.7456794255436 365.8777186863855 M 837.4993488486406 374.4471824104064 L 842.28515625 384.33466733978696 M 842.28515625 384.33466733978696 L 843.9939907674587 388.40574616913 M 847.6532504654587 397.4941921129606 L 850.5859375 405.59769992631226 M 850.5859375 405.59769992631226 L 852.5895250832463 412.07713467135505 M 855.268608395692 421.5012692559784 L 856.93359375 427.88650310362306 M 856.93359375 427.88650310362306 L 858.7902959425794 436.48968917849845 M 860.5798222085781 446.1232758165199 L 861.328125 450.4238948612246 M 861.328125 450.4238948612246 L 862.7687968205578 461.36420982955906 M 863.7487715465105 471.1138534507771 L 864.013671875 473.98451223173674 M 864.013671875 473.98451223173674 L 864.6714627979001 486.4843612471519 M 864.8734354509137 496.281431308212 L 864.8921596647114 497.5134539024772" stroke-linecap="round" stroke-linejoin="round" stroke-miterlimit="10" stroke-width="3.5" stroke-dasharray=""/></g><path fill="#388c46" stroke="none" paint-order="stroke fill markers" d="" fill-opacity="0.4"/><path fill="#388c46" stroke="none" class="dcg-svg-region" paint-order="stroke fill markers" d=" M 0 -3 L 0 1003 L 39.58467391197174 1003 L 40.283203125 1001.5110957143536 L 99.609375 876.7372945269922 L 138.427734375 794.4374850859958 L 159.66796875 748.0051494721529 L 175.0488281250001 712.9827190066969 L 187.01171875 684.3184423398054 L 196.77734375000006 659.414139538293 L 204.5898437500001 637.952788266656 L 210.93750000000006 618.9411589478685 L 216.30859375000006 601.1171669385459 L 220.70312500000006 584.6187300181379 L 224.12109375000006 569.7851534526122 L 226.80664062500006 555.96099396829 L 229.00390625000006 541.901861515765 L 230.4687500000001 529.493703233398 L 231.4453125000001 517.46838444103 L 231.9335937500001 506.89864602585766 L 232.07269152203105 497.5134539024772 L 232.07269152203105 497.5134539024772 L 231.9335937500001 488.1282617790967 L 231.4453125000001 477.55852336392434 L 230.4687500000001 465.5332045715563 L 229.00390625000006 453.1250462891894 L 226.80664062500006 439.06591383666427 L 224.12109375000006 425.2417543523422 L 220.70312500000006 410.4081777868165 L 216.30859375000006 393.90974086640847 L 210.93750000000006 376.08574885708583 L 204.5898437500001 357.0741195382984 L 196.77734375000006 335.6127682666613 L 187.01171875 310.70846546514895 L 175.0488281250001 282.04418879825755 L 159.66796875 247.0217583328015 L 138.427734375 200.5894227189586 L 99.609375 118.28961327796219 L 41.939829185846115 -3 L 0 -3 M 548.4824255933712 497.5134539024772 L 548.828125 507.972064075404 L 549.8046875 517.9675300699042 L 551.26953125 527.2085534195189 L 553.22265625 536.2370706599356 L 555.908203125 545.9726549878418 L 559.08203125 555.3931106904779 L 562.98828125 565.1902386862085 L 567.626953125 575.200897023892 L 572.998046875 585.3224178203832 L 579.345703125 595.8624675029192 L 586.669921875 606.632174188443 L 594.970703125 617.4793516676892 L 604.00390625 627.9995321899689 L 613.28125 637.6671969084952 L 623.046875 646.7873411944179 L 632.8125 654.9538256348698 L 642.822265625 662.4268948674237 L 652.83203125 669.0540364991871 L 662.841796875 674.8764649505029 L 672.8515625 679.9191097323832 L 682.6171875 684.0990515964821 L 692.138671875 687.4728637225434 L 701.6601562500001 690.1478344886013 L 710.9375 692.0694423286553 L 719.970703125 693.2730996684905 L 728.759765625 693.789736015376 L 737.3046875 693.6466564253662 L 745.60546875 692.8681517588219 L 753.662109375 691.4759269842609 L 761.71875 689.4167526169775 L 769.53125 686.7377380852936 L 777.099609375 683.4510988043653 L 784.423828125 679.5662211900894 L 791.748046875 674.9214666842398 L 798.828125 669.6311573329846 L 805.908203125 663.4575323394752 L 812.744140625 656.5424622582909 L 819.3359375 648.8460837933751 L 825.927734375 639.955478184432 L 832.03125 630.4331760926256 L 837.40234375 620.7801380669446 L 842.28515625 610.6922404651674 L 846.6796875 600.222834004812 L 850.5859375 589.429207878642 L 854.00390625 578.3757826820565 L 856.93359375 567.1404047013312 L 859.375 555.8279431029879 L 861.328125 544.6030129437298 L 863.037109375 531.6251597840673 L 864.013671875 521.0423955732176 L 864.74609375 507.124351808301 L 864.8921596647114 497.5134539024772 L 864.8921596647114 497.5134539024772 L 864.74609375 487.90255599665335 L 864.013671875 473.98451223173674 L 863.037109375 463.4017480208871 L 861.328125 450.4238948612246 L 859.375 439.1989647019664 L 856.93359375 427.88650310362306 L 854.00390625 416.6511251228979 L 850.5859375 405.59769992631226 L 846.6796875 394.8040738001425 L 842.28515625 384.33466733978696 L 837.40234375 374.2467697380098 L 832.03125 364.5937317123288 L 825.927734375 355.0714296205224 L 819.3359375 346.18082401157926 L 812.744140625 338.4844455466633 L 805.908203125 331.5693754654792 L 798.828125 325.3957504719698 L 791.748046875 320.10544112071454 L 784.423828125 315.460686614865 L 777.099609375 311.57580900058906 L 769.53125 308.2891697196608 L 761.71875 305.61015518797683 L 753.662109375 303.5509808206934 L 745.60546875 302.15875604613245 L 737.3046875 301.38025137958806 L 728.759765625 301.2371717895784 L 719.970703125 301.7538081364638 L 710.9375 302.95746547629903 L 701.6601562500001 304.8790733163529 L 692.138671875 307.554044082411 L 682.6171875 310.92785620847224 L 672.8515625 315.10779807257126 L 662.841796875 320.15044285445146 L 652.83203125 325.9728713057673 L 642.822265625 332.60001293753066 L 632.8125 340.0730821700846 L 623.046875 348.23956661053643 L 613.28125 357.3597108964592 L 604.00390625 367.0273756149854 L 594.970703125 377.5475561372651 L 586.669921875 388.3947336165114 L 579.345703125 399.16444030203513 L 572.998046875 409.7044899845712 L 567.626953125 419.82601078106234 L 562.98828125 429.8366691187458 L 559.08203125 439.63379711447647 L 555.908203125 449.0542528171125 L 553.22265625 458.78983714501874 L 551.26953125 467.81835438543544 L 549.8046875 477.0593777350502 L 548.828125 487.0548437295504 L 548.4824255933712 497.5134539024772 L 548.4824255933712 497.5134539024772" fill-opacity="0.4"/></g></g><g id="labels-e93117af"/></g></svg>